<svg xmlns="http://www.w3.org/2000/svg" xmlns:xlink="http://www.w3.org/1999/xlink" width="111.475" height="22.75" viewBox="0 0 111.475 22.75">
  <defs>
    <clipPath id="clip-path">
      <rect id="사각형_162773" data-name="사각형 162773" width="111.475" height="22.75" fill="#fff"/>
    </clipPath>
  </defs>
  <g id="그룹_172942" data-name="그룹 172942" clip-path="url(#clip-path)">
    <path id="패스_40074" data-name="패스 40074" d="M162.817,52.256a27.342,27.342,0,0,0-.108-3.018,5.4,5.4,0,0,0-3.07-4.6c-2.3-1.1-5.9-.778-7.407,1.27l-.2.257-.2-.489A1.817,1.817,0,0,0,150.1,44.37a2.113,2.113,0,0,0-.36.032,1.737,1.737,0,0,0-1.523,1.9q0,5.885,0,11.771a1.75,1.75,0,0,0,1.844,1.915h.006a1.82,1.82,0,0,0,1.314-.485,1.938,1.938,0,0,0,.522-1.42V55.37c0-1.359,0-2.714,0-4.073a6.116,6.116,0,0,1,.1-1.1,3.51,3.51,0,0,1,3.815-2.75,3.164,3.164,0,0,1,3.211,3.15c.032,1.459.036,2.943.036,4.377,0,.952,0,1.9.015,2.854a3.249,3.249,0,0,0,.162,1.088,1.832,1.832,0,0,0,2.2,1.024,1.72,1.72,0,0,0,1.364-1.737c.015-1.944.015-3.528,0-4.979v-.959Z" transform="translate(-51.353 -37.503)" fill="#040435"/>
    <path id="패스_40075" data-name="패스 40075" d="M41.187,46.8l-.245-.146.241-.157A4.967,4.967,0,0,0,43.346,42.2c0-3.7-2.833-6.189-7.051-6.189-3.5,0-6.191,1.987-6.691,4.94a1.172,1.172,0,0,0-.04.339,1.69,1.69,0,0,0,1.8,1.573,1.523,1.523,0,0,0,1.609-1.181,3.127,3.127,0,0,1,3.344-2.34c2.077,0,3.524,1.184,3.524,2.879,0,1.848-1.584,2.825-4.575,2.825a1.576,1.576,0,0,0-1.562,1.68A1.618,1.618,0,0,0,35.3,48.437c.615,0,.914.011.983.021l.058.007c1.965.114,4.074,1.066,4.074,3.389,0,2.14-1.566,3.467-4.089,3.467-2.055,0-3.444-.935-3.916-2.629a1.61,1.61,0,0,0-1.6-1.213A1.752,1.752,0,0,0,29,53.16c0,.917,1.267,5.575,7.3,5.575,4.643,0,7.645-2.69,7.645-6.856a5.739,5.739,0,0,0-2.75-5.083Z" transform="translate(-29 -36.002)" fill="#040435"/>
    <path id="패스_40076" data-name="패스 40076" d="M92.088,36H92.07a1.843,1.843,0,0,0-1.85,1.833v6.727a1.857,1.857,0,0,0,3.714,0V37.833A1.843,1.843,0,0,0,92.084,36Z" transform="translate(-40.479 -36)" fill="#040435"/>
    <path id="패스_40077" data-name="패스 40077" d="M92.088,50.878H92.07a1.843,1.843,0,0,0-1.85,1.833v6.727a1.857,1.857,0,0,0,3.714,0V52.712a1.843,1.843,0,0,0-1.85-1.833Z" transform="translate(-40.479 -38.79)" fill="#ff142d"/>
    <path id="패스_40078" data-name="패스 40078" d="M79.988,44.9a1.851,1.851,0,0,0-1.857,1.841V58.3a1.857,1.857,0,0,0,3.714,0V46.744A1.851,1.851,0,0,0,79.988,44.9Z" transform="translate(-38.212 -37.669)" fill="#040435"/>
    <path id="패스_40079" data-name="패스 40079" d="M79.989,41.974a1.837,1.837,0,1,0-1.854-1.837A1.847,1.847,0,0,0,79.989,41.974Z" transform="translate(-38.213 -36.431)" fill="#040435"/>
    <path id="패스_40080" data-name="패스 40080" d="M116.3,44.912a1.851,1.851,0,0,0-1.857,1.841V58.309a1.857,1.857,0,0,0,3.715,0V46.752A1.852,1.852,0,0,0,116.3,44.912Z" transform="translate(-45.02 -37.671)" fill="#040435"/>
    <path id="패스_40081" data-name="패스 40081" d="M116.3,41.974a1.837,1.837,0,1,0-1.853-1.837A1.847,1.847,0,0,0,116.3,41.974Z" transform="translate(-45.021 -36.431)" fill="#040435"/>
    <path id="패스_40082" data-name="패스 40082" d="M131.742,44.012a8.119,8.119,0,1,0,8.192,8.118A8.165,8.165,0,0,0,131.742,44.012Zm0,12.563a4.441,4.441,0,1,1,4.481-4.441A4.466,4.466,0,0,1,131.742,56.575Z" transform="translate(-46.728 -37.502)" fill="#040435"/>
    <path id="패스_40083" data-name="패스 40083" d="M61.622,42.51h-.007a5.481,5.481,0,0,0-4.47,1.78V37.841a1.857,1.857,0,0,0-3.714,0v18.8a1.858,1.858,0,0,0,3.574.7l.112-.264.191.214c.9,1.009,2.815,1.462,4.319,1.462a8.119,8.119,0,1,0,0-16.237Zm0,12.559A4.441,4.441,0,1,1,66.1,50.628,4.466,4.466,0,0,1,61.622,55.069Z" transform="translate(-33.581 -36)" fill="#040435"/>
    <path id="패스_40084" data-name="패스 40084" d="M104.2,36h-.018a1.843,1.843,0,0,0-1.85,1.833v6.727a1.858,1.858,0,0,0,3.715,0V37.833A1.844,1.844,0,0,0,104.2,36Z" transform="translate(-42.75 -36)" fill="#ff142d"/>
    <path id="패스_40085" data-name="패스 40085" d="M104.2,50.878h-.018a1.843,1.843,0,0,0-1.85,1.833v6.727a1.858,1.858,0,0,0,3.715,0V52.712a1.844,1.844,0,0,0-1.85-1.833Z" transform="translate(-42.75 -38.79)" fill="#040435"/>
  </g>
</svg>
