<svg xmlns="http://www.w3.org/2000/svg" xmlns:xlink="http://www.w3.org/1999/xlink" width="110.893" height="22.75" viewBox="0 0 110.893 22.75">
  <defs>
    <clipPath id="clip-path">
      <rect id="사각형_164006" data-name="사각형 164006" width="110.893" height="22.75" fill="none"/>
    </clipPath>
  </defs>
  <g id="그룹_173065" data-name="그룹 173065" clip-path="url(#clip-path)">
    <path id="패스_40743" data-name="패스 40743" d="M404.267,40.664c.013-1.954.014-3.543,0-5,0-.321,0-.644,0-.966a27.184,27.184,0,0,0-.106-3.027,5.382,5.382,0,0,0-3.026-4.578c-2.232-1.081-5.83-.772-7.307,1.258l-.26.334-.232-.577a1.762,1.762,0,0,0-1.674-1.283,2.093,2.093,0,0,0-.349.03,1.693,1.693,0,0,0-1.472,1.857c-.005,4.288-.005,8.156,0,11.826a1.7,1.7,0,0,0,1.782,1.869,1.757,1.757,0,0,0,1.277-.472,1.909,1.909,0,0,0,.505-1.389q0-1.364,0-2.728V37.69q0-1.983,0-3.966a6.571,6.571,0,0,1,.1-1.109,3.547,3.547,0,0,1,3.855-2.806,3.214,3.214,0,0,1,3.247,3.217c.033,1.47.035,2.958.038,4.4,0,.94,0,1.912.013,2.867a3.254,3.254,0,0,0,.159,1.075,1.771,1.771,0,0,0,2.133.994,1.669,1.669,0,0,0,1.314-1.694" transform="translate(-293.384 -19.928)" fill="#fff"/>
    <path id="패스_40744" data-name="패스 40744" d="M7.21,22.772c4.591,0,7.558-2.683,7.558-6.834a5.724,5.724,0,0,0-2.713-5.062l-.318-.192.311-.2a4.954,4.954,0,0,0,2.131-4.271c0-3.687-2.8-6.164-6.969-6.164C3.75.045,1.094,2.022.6,4.965A1.138,1.138,0,0,0,.563,5.3,1.635,1.635,0,0,0,2.305,6.826,1.465,1.465,0,0,0,3.854,5.681,3.166,3.166,0,0,1,7.236,3.288c2.1,0,3.564,1.212,3.564,2.948,0,1.893-1.594,2.894-4.609,2.894a1.526,1.526,0,0,0-1.5,1.635,1.57,1.57,0,0,0,1.528,1.662c.615,0,.913.011.986.021l.055.006c1.983.117,4.1,1.086,4.1,3.456,0,2.182-1.581,3.538-4.127,3.538-2.072,0-3.474-.952-3.95-2.68a1.554,1.554,0,0,0-1.544-1.179A1.7,1.7,0,0,0,0,17.224c0,.913,1.253,5.548,7.21,5.548" transform="translate(0 -0.034)" fill="#fff"/>
    <path id="패스_40745" data-name="패스 40745" d="M202.009,0h-.016a1.789,1.789,0,0,0-1.787,1.787V8.774a1.8,1.8,0,0,0,3.59,0V1.787A1.789,1.789,0,0,0,202.009,0" transform="translate(-150.672)" fill="#fff"/>
    <path id="패스_40746" data-name="패스 40746" d="M202.009,47.982h-.016a1.789,1.789,0,0,0-1.787,1.787V56.8a1.8,1.8,0,0,0,3.59,0V49.769a1.789,1.789,0,0,0-1.787-1.787" transform="translate(-150.672 -36.11)" fill="#ff142d"/>
    <path id="패스_40747" data-name="패스 40747" d="M162.453,29.375a1.8,1.8,0,0,0-1.8,1.795V42.783a1.8,1.8,0,0,0,3.59,0V31.17a1.8,1.8,0,0,0-1.795-1.795" transform="translate(-120.908 -22.107)" fill="#fff"/>
    <path id="패스_40748" data-name="패스 40748" d="M162.463,9.606a1.792,1.792,0,1,0,1.792,1.792,1.794,1.794,0,0,0-1.792-1.792" transform="translate(-120.918 -7.229)" fill="#fff"/>
    <path id="패스_40749" data-name="패스 40749" d="M281.19,29.4a1.8,1.8,0,0,0-1.8,1.795V42.81a1.8,1.8,0,0,0,3.59,0V31.2a1.8,1.8,0,0,0-1.8-1.795" transform="translate(-210.268 -22.127)" fill="#fff"/>
    <path id="패스_40750" data-name="패스 40750" d="M281.2,9.606a1.792,1.792,0,1,0,1.792,1.792A1.794,1.794,0,0,0,281.2,9.606" transform="translate(-210.278 -7.229)" fill="#fff"/>
    <path id="패스_40751" data-name="패스 40751" d="M317.279,26.44a8.1,8.1,0,1,0,8.1,8.1,8.113,8.113,0,0,0-8.1-8.1m0,12.621a4.517,4.517,0,1,1,4.517-4.517,4.522,4.522,0,0,1-4.517,4.517" transform="translate(-232.68 -19.898)" fill="#fff"/>
    <path id="패스_40752" data-name="패스 40752" d="M81.685,0a1.8,1.8,0,0,0-1.8,1.795v18.89a1.794,1.794,0,0,0,3.455.68l.143-.345.247.28c.884,1,2.776,1.45,4.26,1.45a8.1,8.1,0,1,0,0-16.208h-.009a5.445,5.445,0,0,0-4.407,1.766l-.1.136V1.795A1.8,1.8,0,0,0,81.685,0m6.309,10.129a4.517,4.517,0,1,1-4.517,4.517,4.522,4.522,0,0,1,4.517-4.517" transform="translate(-60.124)" fill="#fff"/>
    <path id="패스_40753" data-name="패스 40753" d="M243.393,1.786A1.789,1.789,0,0,0,241.606,0h-.017A1.789,1.789,0,0,0,239.8,1.786V8.773a1.8,1.8,0,0,0,3.59,0Z" transform="translate(-180.472 0.001)" fill="#ff142d"/>
    <path id="패스_40754" data-name="패스 40754" d="M243.393,49.769a1.789,1.789,0,0,0-1.787-1.787h-.017a1.789,1.789,0,0,0-1.787,1.787V56.8a1.8,1.8,0,0,0,3.59,0Z" transform="translate(-180.472 -36.11)" fill="#fff"/>
  </g>
</svg>
