<svg xmlns="http://www.w3.org/2000/svg" width="35" height="35" viewBox="0 0 35 35">
  <g id="그룹_173181" data-name="그룹 173181" transform="translate(14082.9 14889.006)">
    <g id="타원_228" data-name="타원 228" transform="translate(-14082.9 -14889.006)" fill="none" stroke="#fff" stroke-width="1">
      <circle cx="17.5" cy="17.5" r="17.5" stroke="none"/>
      <circle cx="17.5" cy="17.5" r="17" fill="none"/>
    </g>
    <path id="twitter" d="M18.926,3a8.882,8.882,0,0,1-2.559,1.247,3.65,3.65,0,0,0-6.4,2.444V7.5A8.686,8.686,0,0,1,2.63,3.813S-.63,11.146,6.7,14.406A9.485,9.485,0,0,1,1,16.035c7.333,4.074,16.3,0,16.3-9.371a3.667,3.667,0,0,0-.065-.676A6.29,6.29,0,0,0,18.926,3Z" transform="translate(-14073.883 -14881.24)" fill="#fff"/>
  </g>
</svg>
