<svg xmlns="http://www.w3.org/2000/svg" width="35" height="35" viewBox="0 0 35 35">
  <g id="그룹_173181" data-name="그룹 173181" transform="translate(14037.9 14889.006)">
    <g id="타원_229" data-name="타원 229" transform="translate(-14037.9 -14889.006)" fill="none" stroke="#fff" stroke-width="1">
      <circle cx="17.5" cy="17.5" r="17.5" stroke="none"/>
      <circle cx="17.5" cy="17.5" r="17" fill="none"/>
    </g>
    <g id="youtube" transform="translate(-14028.553 -14877.25)">
      <path id="패스_38160" data-name="패스 38160" d="M18.551,5.972a2.265,2.265,0,0,0-1.581-1.63A58.678,58.678,0,0,0,9.963,4a53.619,53.619,0,0,0-7.008.375A2.265,2.265,0,0,0,1.375,6,23.63,23.63,0,0,0,1,10.315a23.63,23.63,0,0,0,.375,4.343,2.265,2.265,0,0,0,1.581,1.564,53.619,53.619,0,0,0,7.008.375,53.619,53.619,0,0,0,7.008-.375,2.265,2.265,0,0,0,1.581-1.63,23.63,23.63,0,0,0,.375-4.278,23.63,23.63,0,0,0-.375-4.343Z" transform="translate(-0.999 -4)" fill="#fff"/>
      <path id="패스_38161" data-name="패스 38161" d="M9.75,13.809l4.685-2.664L9.75,8.48Z" transform="translate(-2.62 -4.83)" fill="#040435"/>
    </g>
  </g>
</svg>
