<svg xmlns="http://www.w3.org/2000/svg" xmlns:xlink="http://www.w3.org/1999/xlink" width="2327" height="1040" viewBox="0 0 2327 1040">
  <defs>
    <clipPath id="clip-path">
      <rect id="사각형_161129" data-name="사각형 161129" width="461" height="283" transform="translate(0 0.109)" fill="#fff"/>
    </clipPath>
  </defs>
  <g id="그룹_173181" data-name="그룹 173181" transform="translate(0 -1672)">
    <path id="사각형_161171" data-name="사각형 161171" d="M0,0H1173a418,418,0,0,1,418,418v0a418,418,0,0,1-418,418H0a0,0,0,0,1,0,0V0A0,0,0,0,1,0,0Z" transform="translate(0 1672)" fill="#f0f2f5"/>
    <g id="그룹_3561" data-name="그룹 3561" transform="translate(910 2027.892)" clip-path="url(#clip-path)">
      <path id="패스_39458" data-name="패스 39458" d="M1333.9,2156.414a26.543,26.543,0,1,0-26.76-26.542A26.656,26.656,0,0,0,1333.9,2156.414Z" transform="translate(-941 -2056.209)" fill="#d2dbff"/>
      <path id="패스_39459" data-name="패스 39459" d="M1314.97,2148.639a26.375,26.375,0,0,1,0-37.523,26.925,26.925,0,0,1,37.85,0Z" transform="translate(-941 -2056.21)" fill="#4d80ff"/>
      <path id="패스_39460" data-name="패스 39460" d="M1175.43,2119.73s-13.9,9.777-15.78,16.746h131.43s-5.73-9.319-13.92-13.948c-5.4-3.056-34.91-9.448-34.91-9.448s-11.3,36.189-42.62,24.75l-.88-4.978-23.31-13.141Z" transform="translate(-941 -2056.253)" fill="#4d80ff"/>
      <path id="패스_39461" data-name="패스 39461" d="M1229.79,2092.345c4.98.986,5.71,5.9,5.71,6.889s-3.35,10.712-3.35,10.712l9.81,2.21s1.99,5.545-8.45,20.329-33.66,5.9-33.66,5.9l-.86-4.938c-14.79,1.225-23.49-12.942-23.86-14.525-.37-1.613-6.21-17.622-7.34-20.33s-.86-7.387-.86-7.387h54.78l8.08,1.115Z" transform="translate(-941 -2056.156)" fill="#ac7878"/>
      <path id="패스_39462" data-name="패스 39462" d="M1166.91,2091.333s-.98-27.836,25.24-34.128,40.63,13.55,42.36,20.2c.86,2.778,2.49,8,2.3,10.523,0,0,8.02,0,11.74,1.792s10.12,6.1,12.74,11.827,1.68,16.2,1.68,16.2l-31.37-7.566s3.79-9.856,3.48-13-7.26-7.069-11.19-2.957c-.94.806-2.67,3.564-1.92,5.665,0,0-7.52,4.44-17.2-8.681l-37.84.129Z" transform="translate(-941 -2056)" fill="#040435"/>
      <path id="패스_39463" data-name="패스 39463" d="M1259.6,2137.223s-2.73-14.794,11.67-12.683c10.43,3.683,13.29,4.121,15.96,5.167s6.03,3.455,6.45,7.517H1259.6Z" transform="translate(-941 -2056.303)" fill="#ac7878"/>
      <path id="패스_39464" data-name="패스 39464" d="M1131.44,2137.949a.986.986,0,0,1-.92-1.374,13.825,13.825,0,0,1,9.92-8.472,117.936,117.936,0,0,0,13.92-3.793s7.78-.329,10.43,3.793a33.663,33.663,0,0,1,3.82,9.846h-37.17Z" transform="translate(-941 -2056.303)" fill="#ac7878"/>
      <path id="패스_39465" data-name="패스 39465" d="M1325.44,2135.66l-281.8,2.25a13.941,13.941,0,0,0-13.89,14l1.08,134.322a13.961,13.961,0,0,0,14.13,13.779l281.79-2.24a13.952,13.952,0,0,0,13.9-14.008l-1.09-134.322A13.959,13.959,0,0,0,1325.44,2135.66Z" transform="translate(-941 -2056.353)" fill="#fff"/>
      <path id="패스_39466" data-name="패스 39466" d="M1314.01,2181.306s-9.93,4.679-9.93,14.3,2.49,10.1,1.23,14.525-3.48,18.229,0,23.4,7.21,10.842,19.14,12.066l-2.23,13.8,46.21-15.521-1.23-9.358s14.65-71.94-53.17-53.2Z" transform="translate(-941 -2056.541)" fill="#e0b2b3"/>
      <path id="패스_39467" data-name="패스 39467" d="M1306.92,2187.154s-13.2-21.455,11.83-25.646c0,0,38.77-1.712,46.71,2.708s18.88,13.3,19.14,25.128a54.518,54.518,0,0,1-4.98,21.933c-2.73,6.162-11.93,23.894-11.93,23.894h-23.44a8.385,8.385,0,0,1-8.24-5.665,53.371,53.371,0,0,1-2.84-13.311s8.44-8.134-1.74-15.023c-6.21-4.44-12.16,3.455-12.16,5.9,0,0-6.12-1.463-4.87-25.347l-7.45,5.426Z" transform="translate(-941 -2056.466)" fill="#040435"/>
      <path id="패스_39468" data-name="패스 39468" d="M1320.98,2259.681s-13.16,5.9-18.63,20.459c0,0-38.51,33.989-42.5,37.194s-8.7,10.832-6.71,16.507h148.82s2.12-77.615-33.55-89.681l-47.45,15.521Z" transform="translate(-941 -2056.833)" fill="#040435"/>
      <path id="패스_39469" data-name="패스 39469" d="M1085.38,2160.488a30.6,30.6,0,1,0-30.86-30.6A30.724,30.724,0,0,0,1085.38,2160.488Z" transform="translate(-941 -2056.192)" fill="#d2dbff"/>
      <path id="패스_39470" data-name="패스 39470" d="M1107.2,2151.567a31.042,31.042,0,0,1-43.65,0,30.406,30.406,0,0,1,0-43.278Z" transform="translate(-941 -2056.231)" fill="#4d80ff"/>
      <path id="패스_39471" data-name="패스 39471" d="M1159.65,2339.685a35.424,35.424,0,1,0-35.73-35.423A35.571,35.571,0,0,0,1159.65,2339.685Z" transform="translate(-941 -2056.943)" fill="#d2dbff"/>
      <path id="패스_39472" data-name="패스 39472" d="M1134.37,2329.3a35.216,35.216,0,0,1,0-50.1,35.941,35.941,0,0,1,50.53,0Z" transform="translate(-941 -2056.943)" fill="#4d80ff"/>
      <path id="패스_39473" data-name="패스 39473" d="M985.058,2209.989s-24.684-27.757.829-52.048c25.513-24.312,52.663-1,53.493,0s8.61,10.015,10.1,16.427,2.33,18.886,1.33,21.514c0,0,3.32,7.716,3.82,9.856s-1.66,4.112-3.15,4.271a20.251,20.251,0,0,0,.99,5.426c.83,1.981,3.41,4.122,4.02,7.716s2.1,17.731-11.32,22.5l-9.6-10.016s-25.59-17.432-53.757-10.384l3.226-15.242Z" transform="translate(-941 -2056.403)" fill="#e0b2b3"/>
      <path id="패스_39474" data-name="패스 39474" d="M1054.3,2260.979s4.81-9.6,7-11.529,7.58-4.809,25.14-7.805c7.78-1.553,11.4-2.14,11.67,2.171.3,4.321-16.07,10.712-16.07,10.712s4.15,3.4,4.85,5.376,1.62,6.82.73,9.647c-.86,2.837-15.68,20.808-15.68,20.808l-17.64-29.389Z" transform="translate(-941 -2056.817)" fill="#e0b2b3"/>
      <path id="패스_39475" data-name="패스 39475" d="M1159.81,2184.59h-81.72a7.019,7.019,0,1,0,0,14.037h81.72a7.019,7.019,0,1,0,0-14.037Z" transform="translate(-941 -2056.57)" fill="#ff475a"/>
      <path id="패스_39476" data-name="패스 39476" d="M1198.63,2176.687v34.437a18.836,18.836,0,0,0,37.67,0v-34.437a18.836,18.836,0,0,0-37.67,0Z" transform="translate(-941 -2056.452)" fill="#ffccd1"/>
      <path id="패스_39477" data-name="패스 39477" d="M1198.62,2242.757v16.178a18.831,18.831,0,0,0,37.66,0v-16.178a18.831,18.831,0,0,0-37.66,0Z" transform="translate(-941 -2056.745)" fill="#ffccd1"/>
      <path id="패스_39478" data-name="패스 39478" d="M1115.64,2208.16h-37.55a7.019,7.019,0,1,0,0,14.038h37.55a7.019,7.019,0,1,0,0-14.038Z" transform="translate(-941 -2056.674)" fill="#ffccd1"/>
      <path id="패스_39479" data-name="패스 39479" d="M1236.28,2250.96h-37.66v9.209h37.66Z" transform="translate(-941 -2056.864)" fill="#ff475a"/>
      <path id="패스_39480" data-name="패스 39480" d="M1282.84,2258.833V2224.4a18.831,18.831,0,0,0-37.66,0v34.437a18.831,18.831,0,0,0,37.66,0Z" transform="translate(-941 -2056.663)" fill="#ffccd1"/>
      <path id="패스_39481" data-name="패스 39481" d="M1282.86,2192.865v-16.178a18.831,18.831,0,0,0-37.66,0v16.178a18.831,18.831,0,0,0,37.66,0Z" transform="translate(-941 -2056.452)" fill="#ffccd1"/>
      <path id="패스_39482" data-name="패스 39482" d="M1245.2,2184.859h37.66v-9.209H1245.2Z" transform="translate(-941 -2056.53)" fill="#ff475a"/>
      <path id="패스_39483" data-name="패스 39483" d="M977.149,2167.692c-8.295,14.535-1.751,35.223,7.8,42.371l-1.862,9.448s33.035-4.53,35.3-6.013,10.3-6.163,7.54-15.023c-1.76-3.952-2.6-13.8,9.21-11.668l1.35,60.69s19.78.159,21.27-15.521c.67-7.148-1.44-14.257-4.77-15.979l-1.5-6.043-6.63-1.224-4.59-50.266s-37.57-34.068-63.121,9.209Z" transform="translate(-941 -2056.397)" fill="#040435"/>
      <path id="패스_39484" data-name="패스 39484" d="M941,2333.739s6.95-58.38,6.95-61.506,3.889-33.342,26.379-44.014,36.771-8.871,55.961,2.13c0,0,7.77,4.938,19.19,22.839s48.04,80.551,48.04,80.551Z" transform="translate(-941 -2056.731)" fill="#ff475a"/>
      <path id="패스_39485" data-name="패스 39485" d="M1033.76,2322.17l8.61,11.907h55.15l-21.56-36.687Z" transform="translate(-941 -2057.069)" fill="#e0b2b3"/>
    </g>
    <ellipse id="타원_216" data-name="타원 216" cx="386.5" cy="385" rx="386.5" ry="385" transform="translate(1554 1942)" fill="#e5eeff"/>
  </g>
</svg>
