<svg xmlns="http://www.w3.org/2000/svg" xmlns:xlink="http://www.w3.org/1999/xlink" width="420" height="547" viewBox="0 0 420 547">
  <defs>
    <clipPath id="clip-path">
      <rect id="사각형_161151" data-name="사각형 161151" width="287" height="61" transform="translate(0 -0.224)" fill="#fff"/>
    </clipPath>
  </defs>
  <g id="그룹_173181" data-name="그룹 173181" transform="translate(-1081 -975)">
    <rect id="사각형_161143" data-name="사각형 161143" width="420" height="547" rx="30" transform="translate(1081 975)" fill="#ff142d"/>
    <g id="그룹_3567" data-name="그룹 3567" transform="translate(1148 1116.225)" clip-path="url(#clip-path)">
      <path id="패스_39557" data-name="패스 39557" d="M1199.7,1078h16.44v3.445h-6.13v16.307h-4.18v-16.307h-6.13Z" transform="translate(-1198 -1078)" fill="#fff"/>
      <path id="패스_39558" data-name="패스 39558" d="M1221.84,1097.752h-4.17V1078h4.05v7.546h.18a4.438,4.438,0,0,1,4.48-2.807c3.13,0,5.21,2.111,5.19,5.575v9.438h-4.17v-8.7c.01-1.822-.98-2.9-2.67-2.9a2.8,2.8,0,0,0-2.9,3.037v8.562Z" transform="translate(-1198 -1078)" fill="#fff"/>
      <path id="패스_39559" data-name="패스 39559" d="M1233.16,1090.436c0-4.57,2.87-7.666,7.28-7.666,3.97,0,7.06,2.489,7.06,7.516v1.135h-10.22a3.239,3.239,0,0,0,3.4,3.574,2.82,2.82,0,0,0,2.88-1.722l3.85.259c-.59,2.748-3.09,4.53-6.81,4.53C1235.98,1098.062,1233.16,1095.135,1233.16,1090.436Zm10.42-1.563a2.94,2.94,0,0,0-3.07-3.036,3.169,3.169,0,0,0-3.23,3.036Z" transform="translate(-1198 -1078.021)" fill="#fff"/>
      <path id="패스_39560" data-name="패스 39560" d="M1213.97,1110.722c-5.19,0-8.71,3.932-8.71,10.882s3.39,10.961,8.77,10.961c4.77,0,7.63-2.628,7.73-6.78h-7.28v-5.316h14.18v4.211c0,8.791-6.11,14.127-14.66,14.127-9.55,0-16.01-6.561-16.01-17.134s6.9-17.214,15.86-17.214c7.66,0,13.57,4.649,14.49,11.26h-7.28c-.91-3.126-3.41-5.008-7.1-5.008Z" transform="translate(-1198 -1078.117)" fill="#fff"/>
      <path id="패스_39561" data-name="패스 39561" d="M1281.5,1125.857c0-8.621,4.72-12.893,10.29-12.893a7.489,7.489,0,0,1,7.24,4.54h.21V1104.93h7.04v33.431h-6.95v-4.012h-.29a7.533,7.533,0,0,1-7.22,4.42c-5.8,0-10.31-4.53-10.31-12.913Zm17.89-.04c0-4.47-1.92-7.327-5.35-7.327s-5.34,2.987-5.34,7.327,1.89,7.417,5.34,7.417S1299.39,1130.3,1299.39,1125.817Z" transform="translate(-1198 -1078.119)" fill="#fff"/>
      <path id="패스_39562" data-name="패스 39562" d="M1319.26,1138.351V1104.93h12.11c10.23,0,16.48,6.262,16.48,16.686s-6.25,16.746-16.58,16.746h-12.01Zm11.71-6.053c6.38,0,9.74-3.236,9.74-10.683s-3.36-10.623-9.71-10.623h-4.57v21.315h4.55Z" transform="translate(-1198 -1078.119)" fill="#fff"/>
      <path id="패스_39563" data-name="패스 39563" d="M1350.12,1125.952c0-7.766,4.8-12.952,12.51-12.952s12.51,5.187,12.51,12.952-4.8,12.932-12.51,12.932S1350.12,1133.678,1350.12,1125.952Zm17.86-.05c0-4.371-1.83-7.606-5.32-7.606s-5.38,3.236-5.38,7.606,1.83,7.6,5.38,7.6S1367.98,1130.283,1367.98,1125.9Z" transform="translate(-1198 -1078.155)" fill="#fff"/>
      <path id="패스_39564" data-name="패스 39564" d="M1376.86,1125.952c0-7.686,4.76-12.952,12.47-12.952,6.64,0,11.09,3.8,11.39,9.6h-6.66a4.5,4.5,0,0,0-4.61-4.172c-3.28,0-5.43,2.708-5.43,7.437s2.14,7.526,5.43,7.526a4.494,4.494,0,0,0,4.61-4.181h6.66c-.33,5.764-4.59,9.687-11.35,9.687-7.83,0-12.51-5.306-12.51-12.932Z" transform="translate(-1198 -1078.155)" fill="#fff"/>
      <path id="패스_39565" data-name="패스 39565" d="M1416.9,1118.52h-4.78v12.146c0,1.931.98,2.449,2.38,2.449a10.744,10.744,0,0,0,1.76-.219l1.11,5.177a13.839,13.839,0,0,1-3.83.647c-5.11.209-8.5-2.22-8.47-7.138V1118.53h-3.48V1113.3h3.48v-6h7.05v6h4.78v5.217Z" transform="translate(-1198 -1078.13)" fill="#fff"/>
      <path id="패스_39566" data-name="패스 39566" d="M1418.34,1125.952c0-7.766,4.8-12.952,12.51-12.952s12.51,5.187,12.51,12.952-4.8,12.932-12.51,12.932S1418.34,1133.678,1418.34,1125.952Zm17.85-.05c0-4.371-1.82-7.606-5.31-7.606s-5.38,3.236-5.38,7.606,1.82,7.6,5.38,7.6S1436.19,1130.283,1436.19,1125.9Z" transform="translate(-1198 -1078.155)" fill="#fff"/>
      <path id="패스_39567" data-name="패스 39567" d="M1446.09,1113.318h6.84v4.371h.26a6.164,6.164,0,0,1,6.11-4.739,11.313,11.313,0,0,1,2.22.249v6.173a12.124,12.124,0,0,0-2.98-.378,5.106,5.106,0,0,0-5.39,5.207v14.187h-7.05v-25.068Z" transform="translate(-1198 -1078.155)" fill="#fff"/>
      <path id="패스_39568" data-name="패스 39568" d="M1477.97,1120.855c-.35-1.613-1.81-2.937-4.25-2.937-2.19,0-3.91.986-3.89,2.479-.02,1.215.86,2.011,3.22,2.519l4.61.916c4.93,1,7.33,3.166,7.35,6.79-.02,4.948-4.74,8.263-11.32,8.263s-10.87-2.947-11.54-7.755l6.94-.358c.43,2.041,2.1,3.106,4.61,3.106s4.1-1.065,4.14-2.549c-.04-1.254-1.04-2.061-3.26-2.5l-4.4-.856c-4.96-.986-7.36-3.415-7.35-7.168-.01-4.828,4.27-7.805,10.77-7.805s10.19,2.857,10.82,7.477l-6.45.4Z" transform="translate(-1198 -1078.155)" fill="#fff"/>
      <path id="패스_39569" data-name="패스 39569" d="M1259.15,1122.294l.79,1.016,1.61-2.1s2.92-3.7,7.47-3.7a7.639,7.639,0,0,1,6.53,3.614l4.25-3.176c-2.43-3.216-5.44-5.854-10.83-5.854s-9.64,3.664-11.47,5.9c-.26.328-.55.687-.85,1.065,1.33,1.693,2.51,3.236,2.51,3.236Z" transform="translate(-1198 -1078.151)" fill="#fff"/>
      <path id="패스_39570" data-name="패스 39570" d="M1275.74,1129.841a7.1,7.1,0,0,1-1.56,1.812v-8.223a1.519,1.519,0,0,0,0-2.419v-.03h-.03a1.566,1.566,0,0,0-.96-.319,1.587,1.587,0,0,0-.96.319h-.03v.03a1.515,1.515,0,0,0,0,2.4v9.448a7.535,7.535,0,0,1-2.87.578v-7.088a1.551,1.551,0,0,0,.6-1.215,1.58,1.58,0,0,0-3.16,0,1.543,1.543,0,0,0,.58,1.2v6.889a9.78,9.78,0,0,1-2.86-1.175v-7.467a1.541,1.541,0,0,0,.59-1.215,1.58,1.58,0,1,0-2.57,1.2v5.964c-.49-.478-.77-.816-.77-.816l-4.38-5.695s-2.91-3.813-4.74-6.063-6.08-5.894-11.47-5.894-8.4,2.628-10.83,5.844l4.25,3.176a7.364,7.364,0,0,1,1.38-1.653v8.243a1.545,1.545,0,0,0,0,2.429v.02h.03a1.617,1.617,0,0,0,.96.329,1.648,1.648,0,0,0,.97-.329h.03v-.02a1.527,1.527,0,0,0,.58-1.2,1.543,1.543,0,0,0-.58-1.2v-9.538a7.6,7.6,0,0,1,2.86-.647v7.258a1.522,1.522,0,0,0-.59,1.2,1.58,1.58,0,1,0,2.57-1.2v-7.1a9.622,9.622,0,0,1,2.87,1.105v7.745a1.536,1.536,0,0,0-.6,1.215,1.58,1.58,0,0,0,3.16,0,1.522,1.522,0,0,0-.59-1.2v-6.3a9.24,9.24,0,0,1,.94.976l4.38,5.695s2.92,3.813,4.75,6.063a16.411,16.411,0,0,0,9.66,5.754v.02h.16a12.568,12.568,0,0,0,1.64.129c5.39,0,8.41-2.638,10.83-5.854l-4.25-3.176Z" transform="translate(-1198 -1078.151)" fill="#fff"/>
      <path id="패스_39571" data-name="패스 39571" d="M1251.37,1128.644s-.42-.548-1.05-1.354l-1.94,2.529s-2.92,3.7-7.47,3.7a7.613,7.613,0,0,1-6.52-3.614l-4.25,3.176c2.42,3.216,5.44,5.854,10.82,5.854s9.64-3.664,11.47-5.9c.36-.448.77-.946,1.18-1.464l-2.24-2.927Z" transform="translate(-1198 -1078.218)" fill="#fff"/>
    </g>
  </g>
</svg>
